<?xml version="1.0" encoding="UTF-8"?>
<svg width="56px" height="56px" viewBox="0 0 56 56" version="1.1" xmlns="http://www.w3.org/2000/svg" xmlns:xlink="http://www.w3.org/1999/xlink">
    <title>Artboard</title>
    <g id="Artboard" stroke="none" stroke-width="1" fill="none" fill-rule="evenodd">
        <g id="Group-4">
            <rect id="Rectangle" x="0" y="0" width="56" height="56"></rect>
            <g id="behance-(3)" transform="translate(2.000000, 12.000000)" fill="#FFFFFF" fill-rule="nonzero">
                <g id="Group" transform="translate(0.000000, 0.005911)">
                    <path d="M21.2086685,13.0504589 C22.0845427,11.6634536 22.5850422,10.0873112 22.5224798,8.32203175 C22.4599173,3.65665031 18.5810458,0 14.0139874,0 L1.06356155,0 C0.437937107,0 0,0.50436556 0,1.07177682 L0,29.568431 C0,30.1988879 0.500499551,30.6402078 1.06356155,30.6402078 L15.4529236,30.6402078 C20.7707314,30.6402078 25.2126649,26.3531005 25.2126649,20.9311708 C25.2126649,17.7158403 23.6486038,14.8157383 21.2086685,13.0504589 L21.2086685,13.0504589 Z M5.63061995,5.67411255 L14.0765499,5.67411255 C15.5780485,5.67411255 16.8292974,6.93502646 16.8292974,8.44812314 C16.8292974,9.96121982 15.5780485,11.2221337 14.0765499,11.2221337 L5.63061995,11.2221337 L5.63061995,5.67411255 Z M15.640611,25.0291409 L5.63061995,25.0291409 L5.63061995,16.959292 L15.640611,16.959292 C17.8302965,16.959292 19.6446074,18.7876171 19.6446074,20.9942165 C19.6446074,23.2008158 17.8302965,25.0291409 15.640611,25.0291409 Z" id="Shape"></path>
                    <path d="M49.9873926,18.9767542 C49.9873926,12.3569562 44.7947098,6.93502646 38.4133405,6.93502646 C32.0319712,6.93502646 26.8392884,12.3569562 26.8392884,18.9767542 C26.8392884,25.5965522 32.0319712,31.018482 38.4133405,31.018482 C42.292212,31.018482 45.9208338,29.0010197 48.0479569,25.6595979 C48.2982066,25.218278 48.5484564,24.7769582 48.7987062,24.3356383 C48.9863935,24.0204098 48.7361438,23.6421356 48.3607691,23.6421356 L42.6675867,23.6421356 C42.5424618,23.6421356 42.4173369,23.7051813 42.3547745,23.768227 C41.2912129,24.8400038 39.9774016,25.3443694 38.475903,25.3443694 C35.660593,25.3443694 33.2832201,23.2008158 32.6575957,20.3637595 L48.9238311,20.3637595 C49.5494555,20.3637595 50.0499551,19.8593939 50.0499551,19.228937 L49.9873926,18.9767542 Z M38.4133405,12.609139 C40.4779012,12.609139 42.292212,13.7439615 43.3557736,15.509241 L33.408345,15.509241 C34.4719066,13.8070072 36.3487799,12.609139 38.4133405,12.609139 Z" id="Shape"></path>
                    <path d="M43.2306487,5.54802116 L32.9078455,5.54802116 C32.4073459,5.54802116 32.0319712,5.16974699 32.0319712,4.66538143 L32.0319712,2.08050794 C32.0319712,1.57614238 32.4073459,1.19786821 32.9078455,1.19786821 L43.1680863,1.19786821 C43.6685858,1.19786821 44.0439605,1.57614238 44.0439605,2.08050794 L44.0439605,4.66538143 C44.1065229,5.1067013 43.6685858,5.54802116 43.2306487,5.54802116 L43.2306487,5.54802116 Z" id="Path"></path>
                </g>
            </g>
        </g>
    </g>
</svg>