<?xml version="1.0" encoding="UTF-8"?>
<svg width="56px" height="56px" viewBox="0 0 56 56" version="1.1" xmlns="http://www.w3.org/2000/svg" xmlns:xlink="http://www.w3.org/1999/xlink">
    <title>Artboard</title>
    <g id="Artboard" stroke="none" stroke-width="1" fill="none" fill-rule="evenodd">
        <g id="instagram-(1)" transform="translate(-1.000000, 0.000000)">
            <g id="Group" transform="translate(0.028076, 0.000000)">
                <rect id="Rectangle" x="0.971923813" y="0" width="56" height="56"></rect>
                <path d="M44.90625,21.40625 C44.8312988,19.7062988 44.5563964,18.5375976 44.1625976,17.5249024 C43.7563476,16.4499512 43.1313476,15.4875488 42.3125,14.6875 C41.5124512,13.875 40.5437012,13.2436524 39.4812012,12.84375 C38.4626464,12.4499512 37.3000488,12.1750488 35.6000976,12.1000976 C33.8874512,12.0187988 33.34375,12 29,12 C24.65625,12 24.1125488,12.0187988 22.40625,12.09375 C20.7062988,12.1687012 19.5375976,12.4438476 18.5251464,12.8374024 C17.4499512,13.2436524 16.4875488,13.8686524 15.6875,14.6875 C14.875,15.4875488 14.2438964,16.4562988 13.84375,17.5187988 C13.4499512,18.5375976 13.1750488,19.6999512 13.1000976,21.3999024 C13.0187988,23.1125488 13,23.65625 13,28 C13,32.34375 13.0187988,32.8874512 13.09375,34.59375 C13.1687012,36.2937012 13.4438476,37.4624024 13.8376464,38.4750976 C14.2438964,39.5500488 14.875,40.5124512 15.6875,41.3125 C16.4875488,42.125 17.4562988,42.7563476 18.5187988,43.15625 C19.5375976,43.5500488 20.6999512,43.8249512 22.4001464,43.8999024 C24.1062012,43.9750976 24.6501464,43.9936524 28.9938964,43.9936524 C33.3376464,43.9936524 33.8813476,43.9750976 35.5876464,43.8999024 C37.2875976,43.8249512 38.4562988,43.5500488 39.46875,43.15625 C41.6188964,42.3249512 43.3188476,40.625 44.1501464,38.4750976 C44.5437012,37.4562988 44.8188476,36.2937012 44.8937988,34.59375 C44.96875,32.8874512 44.9875488,32.34375 44.9875488,28 C44.9875488,23.65625 44.9812012,23.1125488 44.90625,21.40625 Z M42.0251464,34.46875 C41.9562988,36.03125 41.6938476,36.875 41.4750976,37.4375 C40.9375,38.8312988 39.8312988,39.9375 38.4375,40.4750976 C37.875,40.6938476 37.0251464,40.9562988 35.46875,41.0249024 C33.78125,41.1000976 33.2751464,41.1186524 29.0063476,41.1186524 C24.7375488,41.1186524 24.2250976,41.1000976 22.5437012,41.0249024 C20.9812012,40.9562988 20.1374512,40.6938476 19.5749512,40.4750976 C18.8813476,40.21875 18.25,39.8125 17.7375488,39.28125 C17.2062988,38.7624512 16.8000488,38.1374512 16.5437012,37.4438476 C16.3249512,36.8813476 16.0625,36.03125 15.9938964,34.4750976 C15.9187012,32.7875976 15.9001464,32.28125 15.9001464,28.0124512 C15.9001464,23.7436524 15.9187012,23.2312012 15.9938964,21.5500488 C16.0625,19.9875488 16.3249512,19.1437988 16.5437012,18.5812988 C16.8000488,17.8874512 17.2062988,17.2563476 17.7438964,16.7436524 C18.2624512,16.2124024 18.8874512,15.8061524 19.5812988,15.5500488 C20.1437988,15.3312988 20.9938964,15.0688476 22.5500488,15 C24.2375488,14.9250488 24.7438964,14.90625 29.0124512,14.90625 C33.2875976,14.90625 33.7937012,14.9250488 35.4750976,15 C37.0375976,15.0688476 37.8813476,15.3312988 38.4438476,15.5500488 C39.1374512,15.8061524 39.7687988,16.2124024 40.28125,16.7436524 C40.8125,17.2624512 41.21875,17.8874512 41.4750976,18.5812988 C41.6938476,19.1437988 41.9562988,19.9936524 42.0251464,21.5500488 C42.1000976,23.2375488 42.1188964,23.7436524 42.1188964,28.0124512 C42.1188964,32.28125 42.1000976,32.78125 42.0251464,34.46875 Z" id="Shape" fill="#FFFFFF" fill-rule="nonzero"></path>
                <path d="M29,19.78125 C24.4626464,19.78125 20.78125,23.4624024 20.78125,28 C20.78125,32.5375976 24.4626464,36.21875 29,36.21875 C33.5375976,36.21875 37.21875,32.5375976 37.21875,28 C37.21875,23.4624024 33.5375976,19.78125 29,19.78125 Z M29,33.3312988 C26.0563964,33.3312988 23.6687012,30.9438476 23.6687012,28 C23.6687012,25.0561524 26.0563964,22.6687012 29,22.6687012 C31.9438476,22.6687012 34.3312988,25.0561524 34.3312988,28 C34.3312988,30.9438476 31.9438476,33.3312988 29,33.3312988 L29,33.3312988 Z" id="Shape" fill="#FFFFFF" fill-rule="nonzero"></path>
                <path d="M39.4626464,19.4562988 C39.4626464,20.5158691 38.6035156,21.375 37.5437012,21.375 C36.4841308,21.375 35.625,20.5158691 35.625,19.4562988 C35.625,18.3964844 36.4841308,17.5375976 37.5437012,17.5375976 C38.6035156,17.5375976 39.4626464,18.3964844 39.4626464,19.4562988 L39.4626464,19.4562988 Z" id="Path" fill="#FFFFFF" fill-rule="nonzero"></path>
            </g>
        </g>
    </g>
</svg>