<?xml version="1.0" encoding="UTF-8"?>
<svg width="56px" height="56px" viewBox="0 0 56 56" version="1.1" xmlns="http://www.w3.org/2000/svg" xmlns:xlink="http://www.w3.org/1999/xlink">
    <title>Artboard</title>
    <g id="Artboard" stroke="none" stroke-width="1" fill="none" fill-rule="evenodd">
        <g id="Group">
            <rect id="Rectangle" x="0" y="0" width="56" height="56"></rect>
            <g id="Group-2" transform="translate(12.000000, 12.000000)" fill="#FFFFFF" fill-rule="nonzero">
                <path d="M31.9687805,31.9687805 L31.9687805,20.2602146 C31.9687805,14.5058341 30.7299902,10.1101268 24.0165463,10.1101268 C20.7797073,10.1101268 18.6218146,11.8684098 17.7426732,13.5467707 L17.6627512,13.5467707 L17.6627512,10.6296195 L11.3089561,10.6296195 L11.3089561,31.9687805 L17.942478,31.9687805 L17.942478,21.379122 C17.942478,18.5818537 18.4619707,15.9044683 21.8986146,15.9044683 C25.2952976,15.9044683 25.3352585,19.0613854 25.3352585,21.5389659 L25.3352585,31.9288195 L31.9687805,31.9288195 L31.9687805,31.9687805 Z" id="Path"></path>
                <polygon id="Path" points="0.519492683 10.6296195 7.15301463 10.6296195 7.15301463 31.9687805 0.519492683 31.9687805"></polygon>
                <path d="M3.83625366,4.4408921e-16 C1.71832195,4.4408921e-16 4.79616347e-14,1.71832195 4.79616347e-14,3.83625366 C4.79616347e-14,5.95418537 1.71832195,7.71246829 3.83625366,7.71246829 C5.95418537,7.71246829 7.67250732,5.95418537 7.67250732,3.83625366 C7.67250732,1.71832195 5.95418537,4.4408921e-16 3.83625366,4.4408921e-16 Z" id="Path"></path>
            </g>
        </g>
    </g>
</svg>