<?xml version="1.0" encoding="UTF-8"?>
<svg width="32px" height="32px" viewBox="0 0 32 32" version="1.1" xmlns="http://www.w3.org/2000/svg" xmlns:xlink="http://www.w3.org/1999/xlink">
    <title>Artboard</title>
    <g id="Artboard" stroke="none" stroke-width="1" fill="none" fill-rule="evenodd">
        <g id="menu.orange" transform="translate(0.000000, -0.500000)">
            <rect id="Rectangle" x="0" y="0.5" width="32" height="32"></rect>
            <path d="M30.6666667,18 L1.33333333,18 C0.59733075,18 0,17.3280029 0,16.5 C0,15.6719971 0.59733075,15 1.33333333,15 L30.6666667,15 C31.4026692,15 32,15.6719971 32,16.5 C32,17.3280029 31.4026692,18 30.6666667,18 Z" id="Path" fill="#FCA311" fill-rule="nonzero"></path>
            <path d="M30.6666667,8 L1.33333333,8 C0.59733075,8 0,7.32800291 0,6.5 C0,5.67199709 0.59733075,5 1.33333333,5 L30.6666667,5 C31.4026692,5 32,5.67199709 32,6.5 C32,7.32800291 31.4026692,8 30.6666667,8 Z" id="Path" fill="#FCA311" fill-rule="nonzero"></path>
            <path d="M30.6666667,28 L1.33333333,28 C0.59733075,28 0,27.3280029 0,26.5 C0,25.6719971 0.59733075,25 1.33333333,25 L30.6666667,25 C31.4026692,25 32,25.6719971 32,26.5 C32,27.3280029 31.4026692,28 30.6666667,28 Z" id="Path" fill="#FCA311" fill-rule="nonzero"></path>
        </g>
    </g>
</svg>