<?xml version="1.0" encoding="UTF-8"?>
<svg width="130px" height="108px" viewBox="0 0 130 108" version="1.1" xmlns="http://www.w3.org/2000/svg" xmlns:xlink="http://www.w3.org/1999/xlink">
    <title>Artboard</title>
    <g id="Artboard" stroke="none" stroke-width="1" fill="none" fill-rule="evenodd">
        <g id="Group" transform="translate(5.000000, 4.000000)" stroke="#FFFFFF">
            <rect id="Rectangle" fill="#979797" x="0.5" y="0.5" width="1" height="99"></rect>
            <rect id="Rectangle" fill="#979797" x="89.5" y="0.5" width="1" height="99"></rect>
            <rect id="Rectangle" fill="#979797" x="0.5" y="0.5" width="59" height="1"></rect>
            <path d="M29.6145481,49.5 L29.5866032,50.5 L0.5,50.5 L0.5,49.5 L29.6145481,49.5 Z" id="Rectangle" fill="#979797"></path>
            <rect id="Rectangle" fill="#979797" x="0.5" y="98.5" width="59" height="1"></rect>
            <line x1="28" y1="50" x2="60" y2="99" id="Path-2" stroke-width="2"></line>
            <line x1="73" y1="50" x2="106" y2="99" id="Path-2" stroke-width="2"></line>
            <line x1="73" y1="1" x2="106" y2="51" id="Path-2" stroke-width="2" transform="translate(89.854046, 26.000000) scale(1, -1) translate(-89.854046, -26.000000) "></line>
            <rect id="Rectangle" stroke-width="2" x="60" y="1" width="59" height="98"></rect>
            <rect id="Rectangle" stroke-width="2" x="1" y="1" width="59" height="98"></rect>
            <path d="M31,1 C38.5707212,1 54,7.7293518 54,25.5 C54,43.2706482 38.6323087,50 30,50" id="Path" stroke-width="2"></path>
            <circle id="Oval" stroke-width="2" cx="14" cy="86" r="7"></circle>
            <circle id="Oval" stroke-width="2" cx="89.5" cy="25.5" r="24.5"></circle>
        </g>
        <path d="M95.0000089,54.0451491 C101.253858,54.4227844 106.874715,57.1465581 110.994277,61.3477212 C115.327816,65.7671005 118,71.8214933 118,78.5 C118,85.1785067 115.327816,91.2328995 110.994277,95.6522788 C106.874715,99.8534419 101.253858,102.577216 95.0000089,102.954851 L95.0000089,102.954851 Z" id="Combined-Shape" stroke="#FFFFFF" stroke-width="2"></path>
    </g>
</svg>